<svg width="170" height="48" viewBox="0 0 170 48" fill="none" xmlns="http://www.w3.org/2000/svg">
<g id="Group 4">
<g id="mark">
<path id="Vector" fill-rule="evenodd" clip-rule="evenodd" d="M47.9999 24.0801C47.9999 32.4811 43.6673 39.8627 37.1247 44.1335C33.3711 46.5764 28.8807 48 24.0746 48C23.8992 48 23.7413 48 23.5659 48C23.4081 48 23.2326 48 23.0748 47.9825C22.952 47.9825 22.8293 47.9649 22.7064 47.9649C22.5662 47.9649 22.4258 47.9473 22.2855 47.9473C22.1451 47.9296 22.0049 47.9297 21.8645 47.9121C21.6716 47.8946 21.5487 47.8945 21.4085 47.877C21.2156 47.8594 21.0225 47.8242 20.8296 47.8066C20.7419 47.7891 20.6367 47.7891 20.549 47.7716C20.4086 47.754 20.2508 47.7188 20.1105 47.7012C19.8473 47.6486 19.5842 47.6133 19.3386 47.5606C19.251 47.5431 19.1633 47.5254 19.0755 47.5078C18.9528 47.4727 18.83 47.4552 18.7073 47.42C18.5493 47.3849 18.4091 47.3673 18.2862 47.3322C18.0407 47.2794 17.7951 47.209 17.532 47.1388C17.4267 47.1036 17.3216 47.0861 17.2163 47.051C16.9532 46.9631 16.6725 46.8927 16.4094 46.7872C16.2866 46.7521 16.1639 46.6995 16.041 46.6643C15.8832 46.6116 15.7604 46.5764 15.6377 46.5237C15.5324 46.4886 15.4271 46.4358 15.3219 46.4007C15.1466 46.3303 14.9711 46.26 14.8132 46.1898C14.708 46.137 14.6027 46.1019 14.4975 46.0491C14.3572 45.9964 14.2344 45.9437 14.1116 45.8735C13.9888 45.8207 13.866 45.7503 13.7257 45.6976C13.4977 45.5922 13.2521 45.4692 13.0241 45.3462C12.761 45.2055 12.4979 45.065 12.2523 44.9244C12.1812 44.8836 12.1101 44.8429 12.0424 44.8021C11.3122 44.2662 11.2253 43.9311 11.1999 43.2107C11.1999 38.2844 11.1999 34.5474 11.1999 32.0001C11.1999 31.4867 11.7454 31.509 12.0641 32.0035C14.6002 35.937 19.0241 38.5446 24.057 38.5446C27.9861 38.5446 31.5644 36.9452 34.1429 34.3617C36.7212 31.7781 38.3175 28.2104 38.3175 24.2559C38.3175 16.3166 38.3175 10.362 38.3175 6.39225C38.334 5.38952 38.3423 4.90307 39.5109 5.74856C44.69 10.1396 47.9999 16.722 47.9999 24.0801Z" fill="url(#paint0_linear)"/>
<path id="Vector_2" fill-rule="evenodd" clip-rule="evenodd" d="M36.8 4.79544C36.8 9.71719 36.8 13.4524 36.8 15.9999C36.8 16.61 36.1631 16.5938 35.7816 16.0208C35.2595 15.2364 34.6603 14.51 33.9907 13.8484C31.4098 11.2585 27.8457 9.65531 23.8953 9.65531C16.0122 9.65531 9.62134 16.0683 9.62134 23.9787C9.62134 31.813 9.62134 37.6889 9.62134 41.6061C9.5877 42.5546 9.59456 43.2108 8.01114 41.8838C3.09102 37.4927 0 31.0891 0 23.9787C0 16.1034 3.77479 9.12676 9.62134 4.7575C13.6244 1.76245 18.5755 0.000661504 23.9481 0.000661504C28.3363 -0.0319573 32.4239 1.14327 35.9597 3.19089C36.5558 3.60172 36.8 3.83026 36.8 4.79544Z" fill="url(#paint1_linear)"/>
<path id="Vector_3" fill-rule="evenodd" clip-rule="evenodd" d="M48.0001 33.6256C48.0001 39.2188 48.0001 43.477 48.0001 46.4C48.0001 48.0001 48.0001 48.0001 46.3939 47.9893C42.7969 47.8657 40.3804 46.6897 38.7306 44.8256C38.6665 44.7533 38.5843 44.6113 38.6026 44.4626C38.6169 44.3473 38.7171 44.2175 38.7708 44.1806C42.228 41.8028 45.1584 38.4343 47.3179 33.632C47.5548 33.1055 48.0001 33.0958 48.0001 33.6256Z" fill="url(#paint2_linear)"/>
<path id="Vector_4" fill-rule="evenodd" clip-rule="evenodd" d="M0 1.60132C0 4.52802 0 8.7931 0 14.3965C0 14.9198 0.414434 14.927 0.642527 14.4019C2.47321 10.1874 5.21983 6.50047 9.34921 3.61338C9.393 3.58276 9.46224 3.49539 9.46125 3.40476C9.46037 3.32353 9.39381 3.23896 9.35476 3.202C7.35976 1.3134 4.85399 0.127628 1.59101 0.0108345C0 0.00132293 0 0.0013231 0 1.60132Z" fill="url(#paint3_linear)"/>
</g>
<g id="text">
<path id="Vector_5" fill-rule="evenodd" clip-rule="evenodd" d="M88.2221 38.3361C85.1308 40.1315 82.36 40.1315 80.864 40.1315C80.8574 40.1315 80.8507 40.1315 80.8441 40.1313C80.8375 40.1315 80.8309 40.1315 80.8241 40.1315C79.3283 40.1315 76.5575 40.1315 73.466 38.3361C72.1075 37.6026 70.8426 36.6443 69.6716 35.4611C66.5571 32.3801 65 28.6503 65 24.272V8.58553C65 8.58553 69.7895 8.10577 71.3749 11.5261C71.0738 17.0328 71.0783 21.2343 71.3749 24.272C71.6806 27.2658 72.2993 29.1368 74.1485 30.9855C75.9931 32.8295 78.2249 33.7538 80.8441 33.7584C83.4632 33.7538 85.695 32.8295 87.5396 30.9855C89.3888 29.1368 90.0076 27.2658 90.3134 24.272C90.6098 21.2343 90.6143 17.0328 90.3134 11.5261C97.505 16.9196 96.6881 24.272 96.6881 24.272C96.6881 28.6503 95.131 32.3801 92.0165 35.4611C90.8455 36.6443 89.5807 37.6026 88.2221 38.3361Z" fill="url(#paint4_linear)"/>
<path id="Vector_6" fill-rule="evenodd" clip-rule="evenodd" d="M110.103 10.3578C113.194 8.5625 115.965 8.5625 117.461 8.5625C117.468 8.5625 117.474 8.5625 117.481 8.5625C117.488 8.5625 117.494 8.5625 117.501 8.5625C118.997 8.5625 121.768 8.5625 124.859 10.3578C126.218 11.0913 127.482 12.0497 128.654 13.2328C131.768 16.3138 133.325 20.0435 133.325 24.4219V40.1083C133.325 40.1083 128.536 40.5881 126.95 37.1678C127.251 31.661 127.247 27.4595 126.95 24.4219C126.645 21.428 126.026 19.5571 124.177 17.7083C122.332 15.8644 120.1 14.9401 117.481 14.9355C114.862 14.9401 112.63 15.8644 110.786 17.7083C108.936 19.5571 108.318 21.428 108.012 24.4219C107.715 27.4595 107.711 31.661 108.012 37.1678C100.82 31.7744 101.637 24.4219 101.637 24.4219C101.637 20.0435 103.194 16.3138 106.309 13.2328C107.48 12.0497 108.745 11.0913 110.103 10.3578Z" fill="url(#paint5_linear)"/>
<path id="Vector_7" fill-rule="evenodd" clip-rule="evenodd" d="M169.961 23.9181C169.982 24.0768 169.994 24.2447 169.994 24.422V40.1084C169.994 40.1084 165.205 40.5881 163.619 37.1678C163.621 37.1321 163.622 37.0964 163.625 37.0607C160.981 39.0425 157.696 40.2165 154.136 40.2165C145.393 40.2165 138.305 33.1305 138.305 24.3894C138.305 15.6485 145.393 8.5625 154.136 8.5625C162.722 8.5625 169.712 15.3952 169.961 23.9181ZM154.136 33.8165C159.344 33.8165 163.567 29.5959 163.567 24.3894C163.567 19.1831 159.344 14.9625 154.136 14.9625C148.93 14.9625 144.707 19.1831 144.707 24.3894C144.707 29.5959 148.93 33.8165 154.136 33.8165Z" fill="url(#paint6_linear)"/>
</g>
</g>
<defs>
<linearGradient id="paint0_linear" x1="29.5999" y1="5.31519" x2="29.5999" y2="48" gradientUnits="userSpaceOnUse">
<stop stop-color="#0EA5E9"/>
<stop offset="1" stop-color="#0284C7"/>
</linearGradient>
<linearGradient id="paint1_linear" x1="18.4" y1="0" x2="18.4" y2="42.6325" gradientUnits="userSpaceOnUse">
<stop stop-color="#10B981"/>
<stop offset="1" stop-color="#059669"/>
</linearGradient>
<linearGradient id="paint2_linear" x1="43.3001" y1="33.2327" x2="43.3001" y2="47.9909" gradientUnits="userSpaceOnUse">
<stop stop-color="#F59E0B"/>
<stop offset="1" stop-color="#D97706"/>
</linearGradient>
<linearGradient id="paint3_linear" x1="4.73063" y1="0.00952148" x2="4.73063" y2="14.7924" gradientUnits="userSpaceOnUse">
<stop stop-color="#0EA5E9"/>
<stop offset="1" stop-color="#0284C7"/>
</linearGradient>
<linearGradient id="paint4_linear" x1="80.858" y1="8.5625" x2="80.858" y2="40.1315" gradientUnits="userSpaceOnUse">
<stop stop-color="#F59E0B"/>
<stop offset="1" stop-color="#D97706"/>
</linearGradient>
<linearGradient id="paint5_linear" x1="117.467" y1="8.5625" x2="117.467" y2="40.1313" gradientUnits="userSpaceOnUse">
<stop stop-color="#F59E0B"/>
<stop offset="1" stop-color="#D97706"/>
</linearGradient>
<linearGradient id="paint6_linear" x1="154.15" y1="8.5625" x2="154.15" y2="40.2165" gradientUnits="userSpaceOnUse">
<stop stop-color="#F59E0B"/>
<stop offset="1" stop-color="#D97706"/>
</linearGradient>
</defs>
</svg>
